<?xml version="1.0" encoding="UTF-8"?><svg id="Layer_2" xmlns="http://www.w3.org/2000/svg" viewBox="0 0 173.86 51.7"><g id="Layer_1-2"><g><path d="M77.44,26.23c-2.61-2.24-6.02-3.58-9.76-3.49-7.45,.17-13.66,6.13-14.12,13.57-.51,8.41,6.15,15.39,14.46,15.39,3.6,0,6.89-1.32,9.42-3.5v3.5h6.37V23.45h-6.37v2.77Zm-6.26,18.5c-6.86,2.63-13.3-3.81-10.67-10.67,.76-1.99,2.36-3.59,4.35-4.35,6.86-2.63,13.3,3.81,10.67,10.67-.76,1.99-2.36,3.59-4.35,4.35Z"/><polygon points="110.54 5.96 103.33 5.96 103.33 44.49 103.33 51.7 110.54 51.7 110.54 44.49 110.54 5.96"/><polygon points="97.18 5.96 89.97 5.96 89.97 44.49 89.97 51.7 97.18 51.7 97.18 44.49 97.18 5.96"/><path d="M48.21,12.83s-10.74-3.05-21.92-11.23l-2.19-1.6-2.19,1.6c-4.71,3.23-9.59,6.09-12.91,7.72,.11,2.42,.81,5.23,1.64,7.61,3.38-1.55,8.02-4.02,13.45-7.8,7.3,5.07,13.17,7.78,16.47,9.09-.64,4.18-4.72,14.64-16.47,23.22-8.58-6.22-12.31-12.54-14.58-17.26-1.43-2.95-3.33-8.5-3.92-13.44-1.65,.67-5.6,2.16-5.6,2.16V51.7H7.21v-16.04c4.06,4.92,8.56,9.41,14.63,14.28l2.27,1.76,2.27-1.76c6.74-5.22,11.01-9.9,14.63-14.17v15.93h7.21V12.83Z"/><path d="M129.04,22.75c-7.99,0-14.46,6.47-14.46,14.46s6.47,14.46,14.46,14.46,14.46-6.47,14.46-14.46-6.47-14.46-14.46-14.46Zm0,22.57c-4.48,0-8.11-3.63-8.11-8.11s3.63-8.11,8.11-8.11,8.11,3.63,8.11,8.11-3.63,8.11-8.11,8.11Z"/><path d="M167.13,41.64c-1.45,2.22-3.95,3.69-6.8,3.69-4.48,0-8.11-3.63-8.11-8.11s3.63-8.11,8.11-8.11c2.85,0,5.35,1.47,6.8,3.69l6.73-.67c-2.06-5.47-7.34-9.36-13.53-9.36-7.99,0-14.46,6.47-14.46,14.46s6.47,14.46,14.46,14.46c6.19,0,11.47-3.89,13.53-9.36l-6.73-.67Z"/></g></g></svg>